<?xml version="1.0" standalone="no"?>
<!DOCTYPE svg PUBLIC "-//W3C//DTD SVG 20010904//EN"
 "http://www.w3.org/TR/2001/REC-SVG-20010904/DTD/svg10.dtd">
<svg version="1.0" xmlns="http://www.w3.org/2000/svg"
 width="200.000000pt" height="200.000000pt" viewBox="0 0 200.000000 200.000000"
 preserveAspectRatio="xMidYMid meet">
<metadata>
Created by potrace 1.11, written by Peter Selinger 2001-2013
</metadata>
<g transform="translate(0.000000,200.000000) scale(0.100000,-0.100000)"
fill="#000000" stroke="none">
<path d="M813 1717 c-11 -23 -22 -90 -39 -230 -3 -30 -11 -50 -21 -54 -20 -8
-78 21 -247 124 -198 121 -224 135 -242 131 -18 -4 -12 -12 166 -219 155 -181
200 -235 200 -244 0 -5 -22 -42 -49 -84 -69 -109 -209 -355 -244 -429 -78
-168 -19 -306 149 -343 65 -15 105 -2 208 66 103 67 154 83 286 87 l114 3 29
-100 c36 -125 56 -149 124 -147 91 3 146 25 246 96 26 19 71 42 101 50 29 9
66 23 82 31 28 15 30 14 55 -14 l27 -29 1 355 1 355 -68 82 c-38 44 -94 116
-125 158 -69 94 -109 132 -165 159 -49 24 -233 53 -242 38 -4 -5 -21 24 -39
65 -18 40 -42 84 -53 96 -19 20 -22 20 -30 6 -5 -9 -16 -51 -24 -93 -19 -99
-27 -108 -65 -63 -58 67 -64 75 -77 100 -7 14 -21 35 -31 48 l-17 23 -11 -24z"/>
</g>
</svg>
